<?xml version="1.0" encoding="UTF-8" standalone="no"?>
<!-- Created with Inkscape (http://www.inkscape.org/) -->

<svg
   width="256.0px"
   height="256.0px"
   viewBox="0 0 256.0 256.0"
   version="1.1"
   id="SVGRoot"
   sodipodi:docname="logo_alt.svg"
   inkscape:version="1.2 (dc2aedaf03, 2022-05-15)"
   xmlns:inkscape="http://www.inkscape.org/namespaces/inkscape"
   xmlns:sodipodi="http://sodipodi.sourceforge.net/DTD/sodipodi-0.dtd"
   xmlns="http://www.w3.org/2000/svg"
   xmlns:svg="http://www.w3.org/2000/svg">
  <sodipodi:namedview
     id="namedview75"
     pagecolor="#ffffff"
     bordercolor="#666666"
     borderopacity="1.0"
     inkscape:showpageshadow="2"
     inkscape:pageopacity="0.0"
     inkscape:pagecheckerboard="0"
     inkscape:deskcolor="#d1d1d1"
     inkscape:document-units="px"
     showgrid="true"
     inkscape:zoom="2"
     inkscape:cx="-22"
     inkscape:cy="77"
     inkscape:window-width="1920"
     inkscape:window-height="991"
     inkscape:window-x="-9"
     inkscape:window-y="-9"
     inkscape:window-maximized="1"
     inkscape:current-layer="layer1"
     showguides="true">
    <inkscape:grid
       type="xygrid"
       id="grid81" />
  </sodipodi:namedview>
  <defs
     id="defs70">
    <rect
       x="310"
       y="30"
       width="215"
       height="60"
       id="rect988" />
  </defs>
  <g
     inkscape:label="Layer 1"
     inkscape:groupmode="layer"
     id="layer1">
    <rect
       style="fill:#ffffff"
       id="rect182"
       width="256"
       height="256"
       x="0"
       y="0" />
    <g
       aria-label="Pedro Pontes García"
       id="text142"
       style="font-size:47.6121px;line-height:1.25;font-family:'JetBrains Mono';-inkscape-font-specification:'JetBrains Mono';stroke-width:1.1903">
      <path
         d="M 46.011916,85.625229 V 50.868397 H 57.20076 q 4.856434,0 7.71316,2.809114 2.904338,2.761501 2.904338,7.427487 0,4.665986 -2.904338,7.4751 -2.856726,2.761501 -7.71316,2.761501 h -6.903755 v 14.28363 z m 4.285089,-18.14021 h 6.903755 q 2.809113,0 4.475537,-1.714035 1.714035,-1.761648 1.714035,-4.665986 0,-2.95195 -1.714035,-4.665986 -1.666424,-1.714035 -4.475537,-1.714035 h -6.903755 z"
         id="path172" />
      <path
         d="m 84.482511,86.10135 q -4.618374,0 -7.4751,-2.761502 -2.809114,-2.809114 -2.809114,-7.71316 v -6.189573 q 0,-4.904046 2.809114,-7.665548 2.856726,-2.809113 7.4751,-2.809113 3.094786,0 5.380167,1.237914 2.332993,1.237915 3.618519,3.475683 1.285527,2.237769 1.285527,5.284943 V 73.62698 H 78.388162 v 2.475829 q 0,2.904338 1.666424,4.618374 1.666423,1.666423 4.427925,1.666423 2.380605,0 3.904192,-0.90463 1.571199,-0.952242 1.904484,-2.523441 h 4.285089 q -0.428509,3.285235 -3.190011,5.237331 -2.761502,1.904484 -6.903754,1.904484 z M 78.388162,70.294133 h 12.188697 v -1.333139 q 0,-3.094786 -1.618811,-4.76121 -1.571199,-1.714035 -4.475537,-1.714035 -2.904338,0 -4.52315,1.714035 -1.571199,1.666424 -1.571199,4.76121 z"
         id="path174" />
      <path
         d="m 111.5262,86.10135 q -3.90419,0 -6.2848,-2.618666 -2.33299,-2.618665 -2.33299,-7.094202 v -7.665548 q 0,-4.52315 2.33299,-7.141815 2.333,-2.618665 6.2848,-2.618665 2.95195,0 4.85644,1.475975 1.95209,1.475975 2.33299,3.999416 h 0.0476 l -0.0952,-5.951512 v -7.617936 h 4.28509 v 34.756832 h -4.28509 v -4.99927 h -0.0476 q -0.33328,2.571053 -2.23776,4.047028 -1.90449,1.428363 -4.85644,1.428363 z m 1.42836,-3.713744 q 2.66628,0 4.18987,-1.666423 1.52359,-1.666424 1.52359,-4.618374 v -7.141815 q 0,-2.95195 -1.52359,-4.618373 -1.52359,-1.666424 -4.18987,-1.666424 -2.71389,0 -4.23747,1.428363 -1.52359,1.380751 -1.52359,4.618374 v 7.617936 q 0,3.19001 1.52359,4.618373 1.52358,1.428363 4.23747,1.428363 z"
         id="path176" />
      <path
         d="M 132.66599,85.625229 V 59.438575 h 4.28509 v 4.99927 h 0.0952 q 0.33328,-2.523441 2.14254,-3.999416 1.80926,-1.475975 4.85644,-1.475975 4.09464,0 6.28479,2.475829 2.23777,2.428217 2.23777,6.951366 v 2.237769 h -4.28509 v -2.237769 q 0,-5.713452 -5.57061,-5.713452 -2.80912,0 -4.28509,1.618812 -1.47598,1.618811 -1.47598,4.665985 v 16.664235 z"
         id="path178" />
      <path
         d="m 170.18434,86.006126 q -4.71359,0 -7.52271,-2.761502 -2.7615,-2.761502 -2.7615,-7.71316 V 69.53234 q 0,-4.999271 2.7615,-7.71316 2.7615,-2.761502 7.52271,-2.761502 4.76121,0 7.52272,2.761502 2.7615,2.713889 2.7615,7.71316 v 5.999124 q 0,4.951658 -2.80912,7.71316 -2.7615,2.761502 -7.4751,2.761502 z m 0,-3.808968 q 2.80912,0 4.38032,-1.571199 1.61881,-1.5712 1.61881,-4.618374 v -6.951366 q 0,-3.047175 -1.61881,-4.618374 -1.5712,-1.571199 -4.38032,-1.571199 -2.7615,0 -4.38031,1.571199 -1.61881,1.571199 -1.61881,4.618374 v 6.951366 q 0,3.047174 1.61881,4.618374 1.61881,1.571199 4.38031,1.571199 z"
         id="path180" />
      <path
         d="M 46.011916,145.14035 V 110.38352 H 57.20076 q 4.856434,0 7.71316,2.80911 2.904338,2.76151 2.904338,7.42749 0,4.66599 -2.904338,7.4751 -2.856726,2.7615 -7.71316,2.7615 h -6.903755 v 14.28363 z m 4.285089,-18.14021 h 6.903755 q 2.809113,0 4.475537,-1.71403 1.714035,-1.76165 1.714035,-4.66599 0,-2.95195 -1.714035,-4.66598 -1.666424,-1.71404 -4.475537,-1.71404 h -6.903755 z"
         id="path182" />
      <path
         d="m 84.482511,145.52125 q -4.713598,0 -7.522712,-2.7615 -2.761502,-2.7615 -2.761502,-7.71316 v -5.99913 q 0,-4.99927 2.761502,-7.71316 2.761502,-2.7615 7.522712,-2.7615 4.76121,0 7.522711,2.7615 2.761502,2.71389 2.761502,7.71316 v 5.99913 q 0,4.95166 -2.809114,7.71316 -2.761501,2.7615 -7.475099,2.7615 z m 0,-3.80897 q 2.809114,0 4.380313,-1.5712 1.618811,-1.5712 1.618811,-4.61837 v -6.95137 q 0,-3.04717 -1.618811,-4.61837 -1.571199,-1.5712 -4.380313,-1.5712 -2.761502,0 -4.380313,1.5712 -1.618812,1.5712 -1.618812,4.61837 v 6.95137 q 0,3.04717 1.618812,4.61837 1.618811,1.5712 4.380313,1.5712 z"
         id="path184" />
      <path
         d="M 103.14647,145.14035 V 118.9537 h 4.28509 v 4.99927 h 0.0476 q 0.33329,-2.61867 2.14255,-4.04703 1.80926,-1.42836 4.80882,-1.42836 3.9518,0 6.2848,2.42821 2.33299,2.42822 2.33299,6.61809 v 17.61647 h -4.28509 v -16.85468 q 0,-2.99956 -1.52359,-4.57076 -1.47597,-1.61881 -4.04703,-1.61881 -2.66627,0 -4.23747,1.66642 -1.52359,1.66642 -1.52359,4.7136 v 16.66423 z"
         id="path186" />
      <path
         d="m 144.23573,145.14035 q -3.23762,0 -5.18971,-1.85687 -1.9521,-1.90448 -1.9521,-5.04688 v -15.37871 h -7.52271 v -3.90419 h 7.52271 v -7.37988 h 4.28509 v 7.37988 h 10.71272 v 3.90419 h -10.71272 v 15.37871 q 0,1.33314 0.76179,2.19015 0.80941,0.80941 2.09493,0.80941 h 7.61794 v 3.90419 z"
         id="path188" />
      <path
         d="m 170.18434,145.61647 q -4.61837,0 -7.4751,-2.7615 -2.80911,-2.80911 -2.80911,-7.71316 v -6.18957 q 0,-4.90405 2.80911,-7.66555 2.85673,-2.80911 7.4751,-2.80911 3.09479,0 5.38017,1.23791 2.33299,1.23792 3.61852,3.47568 1.28553,2.23777 1.28553,5.28495 v 4.66598 H 164.09 v 2.47583 q 0,2.90434 1.66642,4.61838 1.66642,1.66642 4.42792,1.66642 2.38061,0 3.9042,-0.90463 1.5712,-0.95224 1.90448,-2.52344 h 4.28509 q -0.42851,3.28523 -3.19001,5.23733 -2.7615,1.90448 -6.90376,1.90448 z M 164.09,129.80926 h 12.18869 v -1.33314 q 0,-3.09479 -1.61881,-4.76121 -1.5712,-1.71404 -4.47554,-1.71404 -2.90433,0 -4.52314,1.71404 -1.5712,1.66642 -1.5712,4.76121 z"
         id="path190" />
      <path
         d="m 197.70416,145.52125 q -4.38031,0 -6.80853,-1.9521 -2.3806,-1.99971 -2.3806,-5.61822 h 4.28509 q 0,1.80926 1.28552,2.85672 1.28553,0.99986 3.61852,0.99986 h 2.09493 q 2.38061,0 3.66614,-1.04747 1.33313,-1.04747 1.33313,-2.95195 0,-3.38046 -3.09478,-3.80897 l -7.23704,-1.04747 q -2.66628,-0.38089 -4.14225,-2.19015 -1.47598,-1.85687 -1.47598,-4.85644 0,-3.42807 2.33299,-5.38016 2.38061,-1.9521 6.52286,-1.9521 h 2.09493 q 3.80897,0 6.18958,1.90449 2.42821,1.85687 2.61866,4.90404 h -4.3327 q -0.0952,-1.38075 -1.33314,-2.28538 -1.1903,-0.90463 -3.1424,-0.90463 h -2.09493 q -2.19015,0 -3.42807,0.99985 -1.23791,0.99986 -1.23791,2.71389 0,2.76151 2.52344,3.1424 l 6.76092,0.95224 q 6.66569,0.95225 6.66569,7.80839 0,3.66613 -2.42822,5.71345 -2.3806,1.99971 -6.76092,1.99971 z"
         id="path192" />
      <path
         d="m 56.105681,205.1316 q -4.76121,0 -7.522711,-2.66628 -2.761502,-2.66628 -2.761502,-7.33226 v -15.712 q 0,-4.66598 2.761502,-7.33226 2.761501,-2.66628 7.522711,-2.66628 4.665986,0 7.427488,2.71389 2.761501,2.66628 2.761501,7.28465 h -4.285089 q 0,-2.95195 -1.571199,-4.52315 -1.523587,-1.61881 -4.332701,-1.61881 -2.809114,0 -4.427925,1.5712 -1.571199,1.5712 -1.571199,4.52315 v 15.75961 q 0,2.95195 1.571199,4.57076 1.618811,1.61881 4.427925,1.61881 2.809114,0 4.332701,-1.61881 1.571199,-1.61881 1.571199,-4.57076 v -4.76121 h -7.04659 v -3.9042 H 66.29467 v 8.66541 q 0,4.61837 -2.761501,7.33226 -2.761502,2.66628 -7.427488,2.66628 z"
         id="path194" />
      <path
         d="m 82.19713,205.1316 q -4.047028,0 -6.427633,-2.23777 -2.380605,-2.28538 -2.380605,-5.95151 0,-2.42822 1.095078,-4.23748 1.095078,-1.80926 3.047174,-2.80911 1.952096,-1.04747 4.475538,-1.04747 h 8.094056 v -2.04732 q 0,-5.0945 -5.570615,-5.0945 -2.475829,0 -3.999416,0.90463 -1.523588,0.90463 -1.618812,2.52345 h -4.285089 q 0.238061,-3.09479 2.856726,-5.0945 2.666278,-2.04732 7.046591,-2.04732 4.76121,0 7.284651,2.28538 2.571053,2.28538 2.571053,6.38002 v 17.99738 h -4.237476 v -4.76121 h -0.09522 q -0.380896,2.42821 -2.428217,3.85658 -2.04732,1.38075 -5.427779,1.38075 z m 1.047466,-3.61852 q 3.142399,0 4.999271,-1.52359 1.856871,-1.52359 1.856871,-4.14225 v -3.66613 h -7.617935 q -2.094933,0 -3.428071,1.28552 -1.285527,1.23792 -1.285527,3.33285 0,2.19016 1.428363,3.47568 1.475975,1.23792 4.047028,1.23792 z"
         id="path196" />
      <path
         d="m 104.09871,204.65548 v -26.18666 h 4.28509 v 4.99927 h 0.0952 q 0.33328,-2.52344 2.14254,-3.99941 1.80926,-1.47598 4.85644,-1.47598 4.09464,0 6.28479,2.47583 2.23777,2.42822 2.23777,6.95137 v 2.23776 h -4.28509 v -2.23776 q 0,-5.71346 -5.57061,-5.71346 -2.80912,0 -4.28509,1.61882 -1.47598,1.61881 -1.47598,4.66598 v 16.66424 z"
         id="path198" />
      <path
         d="m 141.99797,205.1316 q -4.76121,0 -7.61794,-2.66628 -2.85673,-2.66628 -2.85673,-7.33226 v -7.14182 q 0,-4.66598 2.85673,-7.33226 2.85673,-2.66628 7.61794,-2.66628 4.52314,0 7.28465,2.42822 2.80911,2.42821 2.95195,6.61808 h -4.28509 q -0.14284,-2.52344 -1.71404,-3.85658 -1.5712,-1.38075 -4.23747,-1.38075 -2.80912,0 -4.52315,1.61881 -1.66643,1.5712 -1.66643,4.52315 v 7.18943 q 0,2.95195 1.66643,4.57076 1.71403,1.61881 4.52315,1.61881 2.66627,0 4.23747,-1.38075 1.5712,-1.38075 1.71404,-3.85658 h 4.28509 q -0.14284,4.18986 -2.95195,6.61808 -2.76151,2.42822 -7.28465,2.42822 z"
         id="path200" />
      <path
         d="m 159.94774,204.65548 v -3.9042 h 9.28436 v -18.37827 h -8.33211 v -3.90419 h 12.6172 v 22.28246 h 8.80824 v 3.9042 z m 8.18928,-30.70981 5.04689,-6.66569 h 4.61837 l -5.28494,6.66569 z"
         id="path202" />
      <path
         d="m 196.46625,205.1316 q -4.04703,0 -6.42764,-2.23777 -2.3806,-2.28538 -2.3806,-5.95151 0,-2.42822 1.09508,-4.23748 1.09508,-1.80926 3.04717,-2.80911 1.9521,-1.04747 4.47554,-1.04747 h 8.09406 v -2.04732 q 0,-5.0945 -5.57062,-5.0945 -2.47583,0 -3.99942,0.90463 -1.52358,0.90463 -1.61881,2.52345 h -4.28509 q 0.23806,-3.09479 2.85673,-5.0945 2.66628,-2.04732 7.04659,-2.04732 4.76121,0 7.28465,2.28538 2.57105,2.28538 2.57105,6.38002 v 17.99738 h -4.23747 v -4.76121 h -0.0952 q -0.38089,2.42821 -2.42821,3.85658 -2.04732,1.38075 -5.42778,1.38075 z m 1.04746,-3.61852 q 3.1424,0 4.99927,-1.52359 1.85688,-1.52359 1.85688,-4.14225 v -3.66613 h -7.61794 q -2.09493,0 -3.42807,1.28552 -1.28553,1.23792 -1.28553,3.33285 0,2.19016 1.42837,3.47568 1.47597,1.23792 4.04702,1.23792 z"
         id="path204" />
    </g>
  </g>
</svg>
